<?xml version="1.0" encoding="utf-8" ?><svg xmlns="http://www.w3.org/2000/svg" xmlns:xlink="http://www.w3.org/1999/xlink" width="482" height="122" viewBox="0 0 482 122"><path fill="#FEFFFE" transform="scale(1.15359 1.15359)" d="M0 0L418 0L418 106L0 106L0 0Z"/><path fill="#FEFFFE" transform="scale(1.15359 1.15359)" d="M29.0315 11.6272C33.8598 7.88163 45.3012 8.70704 51.4107 8.71342C59.4993 8.6465 67.5884 8.74094 75.6732 8.99668C81.102 8.72273 88.3634 8.94178 93.9137 8.94915L128.235 9.0126L229.944 9.49406L296.584 9.91103C306.227 10.0007 315.909 9.79113 325.538 10.2061C331.226 10.4513 335.107 15.9395 335.214 21.3117C335.28 24.3975 334.44 27.825 333.607 30.8053L332.108 36.4367L331.149 40.0029C330.389 43.6104 329.161 47.0937 328.394 50.7396C325.649 63.7756 322.523 82.2988 305.706 83.0868C295.897 83.5464 285.464 83.148 275.464 83.0703L235.671 82.9512L117.676 82.5298C93.8767 82.6486 70.0767 82.5666 46.2786 82.2835C41.7352 82.24 37.1916 82.2228 32.6479 82.2318C31.5734 82.2234 27.4165 82.1973 26.5921 82.05C20.3071 82.2436 13.4982 82.8273 9.83368 76.56C7.7991 73.0803 7.96006 68.5357 8.92663 64.7529C11.9224 53.0286 14.9194 41.2992 17.8876 29.5673C18.6941 26.3865 19.555 22.4735 21.0729 19.6085C22.6072 16.7126 26.3025 13.3168 29.0315 11.6272Z"/><defs><linearGradient id="gradient_0" gradientUnits="userSpaceOnUse" x1="188.62921" y1="9.456109" x2="163.88773" y2="114.37101"><stop offset="0" stop-color="#187B37"/><stop offset="1" stop-color="#5A9A60"/></linearGradient></defs><path fill="url(#gradient_0)" transform="scale(1.15359 1.15359)" d="M328.596 41.8155L328.812 42.1963C329.471 41.9825 330.571 40.6075 331.149 40.0029C330.389 43.6104 329.161 47.0937 328.394 50.7396C325.649 63.7756 322.523 82.2988 305.706 83.0868C295.897 83.5464 285.464 83.148 275.464 83.0703L235.671 82.9512L117.676 82.5298C93.8767 82.6486 70.0767 82.5666 46.2786 82.2835C41.7352 82.24 37.1916 82.2228 32.6479 82.2318C31.5734 82.2234 27.4165 82.1973 26.5921 82.05C25.5929 81.8187 24.0815 81.4764 23.3512 80.731L23.5021 80.2673C24.1621 79.9671 24.8637 79.8676 25.5758 79.7327C27.8873 79.4714 35.2876 79.5875 37.88 79.5783L67.377 79.7451L214.241 80.5933L270.607 80.9114L294.212 81.0127C298.543 81.0177 303.078 81.0949 307.374 80.9239C312.777 80.619 318.207 75.2729 320.425 70.62C323.013 65.1919 324.227 58.2934 325.843 52.4758C326.832 48.9155 327.48 45.3318 328.596 41.8155Z"/><defs><linearGradient id="gradient_1" gradientUnits="userSpaceOnUse" x1="182.77995" y1="24.071575" x2="183.7542" y2="3.7518518"><stop offset="0" stop-color="#136332"/><stop offset="1" stop-color="#389647"/></linearGradient></defs><path fill="url(#gradient_1)" transform="scale(1.15359 1.15359)" d="M29.0315 11.6272C33.8598 7.88163 45.3012 8.70704 51.4107 8.71342C59.4993 8.6465 67.5884 8.74094 75.6732 8.99668C81.102 8.72273 88.3634 8.94178 93.9137 8.94915L128.235 9.0126L229.944 9.49406L296.584 9.91103C306.227 10.0007 315.909 9.79113 325.538 10.2061C331.226 10.4513 335.107 15.9395 335.214 21.3117C335.28 24.3975 334.44 27.825 333.607 30.8053C333.241 31.2291 333.157 31.2862 332.613 31.4186C331.892 30.6714 332.607 30.67 331.858 29.5203L331.828 29.4749C333.304 22.323 334.207 16.6345 327.499 12.0704C321.981 11.8068 315.365 12.0206 309.762 12.0299L275.668 11.9807L150.869 11.2785L103.576 11.0009C94.8365 10.9423 85.3596 11.0628 76.677 10.7567C72.504 10.8941 67.953 10.6565 63.7548 10.5798C58.3616 10.527 52.9682 10.5032 47.5747 10.5083C41.0558 10.5036 35.1871 9.87106 29.3283 13.1044C29.4489 12.4651 30.0354 12.4622 30.0342 11.7249L29.0315 11.6272Z"/><path fill="#2C4F35" transform="scale(1.15359 1.15359)" d="M29.0315 11.6272C33.8598 7.88163 45.3012 8.70704 51.4107 8.71342C59.4993 8.6465 67.5884 8.74094 75.6732 8.99668L75.6037 9.02619C74.277 9.58045 69.4161 9.4077 67.7354 9.40491L46.528 9.35853C42.4297 9.35186 35.6911 8.86511 32.1405 10.6072L32.1387 10.7528C33.164 10.7416 33.7972 9.97435 34.8349 10.0036C36.9637 10.0636 42.2427 9.55327 43.9414 9.64377C46.3132 9.77013 66.3973 9.30805 67.1163 9.87987L65.3639 10.0105C67.1442 10.0218 75.4579 9.82935 76.677 10.7567C72.504 10.8941 67.953 10.6565 63.7548 10.5798C58.3616 10.527 52.9682 10.5032 47.5747 10.5083C41.0558 10.5036 35.1871 9.87106 29.3283 13.1044C29.4489 12.4651 30.0354 12.4622 30.0342 11.7249L29.0315 11.6272Z"/><defs><linearGradient id="gradient_2" gradientUnits="userSpaceOnUse" x1="12.283693" y1="41.660442" x2="36.469364" y2="51.517216"><stop offset="0" stop-color="#0F7440"/><stop offset="1" stop-color="#66835A"/></linearGradient></defs><path fill="url(#gradient_2)" transform="scale(1.15359 1.15359)" d="M29.0315 11.6272L30.0342 11.7249C30.0354 12.4622 29.4489 12.4651 29.3283 13.1044C27.2188 15.1173 24.3786 17.7583 23.1413 20.3981C20.2852 26.5176 19.328 33.3706 17.5166 39.8102C15.654 46.4318 13.8186 53.1683 12.3603 59.8736C11.1572 65.4052 8.55906 72.3421 12.9702 77.0491C15.1248 79.3483 17.6072 79.5944 20.5255 79.6588L25.5758 79.7327C24.8637 79.8676 24.1621 79.9671 23.5021 80.2673L23.3512 80.731C24.0815 81.4764 25.5929 81.8187 26.5921 82.05C20.3071 82.2436 13.4982 82.8273 9.83368 76.56C7.7991 73.0803 7.96006 68.5357 8.92663 64.7529C11.9224 53.0286 14.9194 41.2992 17.8876 29.5673C18.6941 26.3865 19.555 22.4735 21.0729 19.6085C22.6072 16.7126 26.3025 13.3168 29.0315 11.6272Z"/><path fill="#15681D" transform="scale(1.15359 1.15359)" d="M330.494 34.6631C331.072 35.4352 331.346 35.8502 332.108 36.4367L331.149 40.0029C330.571 40.6075 329.471 41.9825 328.812 42.1963L328.596 41.8155C329.168 39.4755 329.872 37.0038 330.494 34.6631Z"/><path fill="#10702E" transform="scale(1.15359 1.15359)" d="M331.828 29.4749L331.858 29.5203C332.607 30.67 331.892 30.6714 332.613 31.4186C333.157 31.2862 333.241 31.2291 333.607 30.8053L332.108 36.4367C331.346 35.8502 331.072 35.4352 330.494 34.6631C330.887 32.9207 331.331 31.1905 331.828 29.4749Z"/><path fill="#419952" transform="scale(1.15359 1.15359)" d="M68.9681 20.046C76.7746 19.9709 84.5816 19.9715 92.3881 20.0476C95.0878 24.1835 97.5208 30.6921 99.7445 35.5194C100.954 32.4329 102.411 28.4275 102.555 25.1205C102.573 24.6994 100.453 20.2227 101.815 20.2327C105.982 20.2634 116.144 19.3485 119.782 20.2378C120.259 20.6513 120.327 20.8765 120.429 21.5012C120.622 22.6864 120.568 24.1365 120.368 25.3226C119.941 27.8547 119.001 30.2999 118.421 32.7996C116.961 39.0885 110.789 68.9439 108.649 71.8293C107.542 73.3226 105.731 73.6554 104.016 73.9186C99.1561 74.4156 95.0432 74.2819 90.7218 72.0821C89.8307 69.5618 88.2759 66.5696 87.0938 64.1546C86.2169 62.363 83.3351 54.6642 81.9661 54.3378C80.5361 55.6401 78.4893 65.6741 78.2769 67.9842C79.6662 68.7028 80.1573 69.0251 80.8318 70.4363C80.8421 72.345 77.8249 73.1585 76.3451 73.0419C70.3389 72.5689 62.3533 76.2054 60.3819 68.0937C62.1657 61.5753 63.864 55.3988 65.4021 48.7704C67.2541 40.7889 68.9588 32.5873 71.2378 24.7292C69.4798 23.2958 69.1957 22.2749 68.9681 20.046Z"/><path fill="#419952" transform="scale(1.15359 1.15359)" d="M167.332 20.0921C170.305 19.8803 173.699 20.0752 176.706 19.9885C186.012 19.7202 195.189 20.4233 204.445 20.5391C204.481 21.7081 204.55 22.9367 204.41 24.0983C202.458 40.3692 192.134 31.1769 187.846 34.6189C187.249 35.0974 186.962 35.863 186.894 36.6098C186.834 37.2684 187.086 37.5849 187.488 38.0576C192.398 40.53 202.995 33.7905 198.234 46.298C197.203 49.007 197.064 49.4451 194.996 51.4301C192.126 51.6678 186.801 51.4891 183.812 51.4403C183.402 53.6069 182.426 56.787 181.807 58.9981C185.314 59.0361 191.193 59.2136 194.585 58.775C196.148 58.0522 197.836 56.2162 199.359 56.8838C200.382 58.2226 199.706 60.8632 199.353 62.4104C198.283 67.0972 197.485 70.722 193.637 73.8624C188.721 74.2391 181.277 73.9351 176.182 73.9856C172.4 74.0231 164.722 74.1827 161.244 73.8138C159.171 72.1199 158.64 70.5961 157.828 68.1374C160.068 61.4748 162.061 51.6833 163.861 44.6378L166.744 32.876C167.705 28.9399 169.096 27.5935 165.911 24.606C164.004 22.8169 165.835 21.328 167.332 20.0921Z"/><path fill="#419952" transform="scale(1.15359 1.15359)" d="M220.806 20.6056C224.186 20.4359 246.277 20.0363 247.752 21.2192C248.451 24.2784 245.898 30.0401 244.829 33.2498C240.201 34.9458 234.262 33.1303 229.657 34.3736C227.94 34.8369 226.738 43.8367 226.348 45.6516C225.659 48.8667 223.313 55.3546 224.713 58.3359C226.087 59.3848 235.754 59.502 238.092 59.5632C239.135 58.4016 240.249 56.906 241.946 57.3095C243.529 58.8996 241.958 63.221 241.433 65.1908C240.875 68.6426 239.763 71.1544 237.548 73.7982C236.617 74.1529 235.639 74.371 234.645 74.4458C231.531 74.6854 227.69 74.3535 224.879 74.4614C212.546 75.0237 198.839 74.2821 202.426 57.6102C204.471 48.1045 207.051 38.3709 209.322 28.8772C211.025 21.7594 214.281 21.0339 220.806 20.6056Z"/><path fill="#419952" transform="scale(1.15359 1.15359)" d="M161.423 18.4341C162.448 18.455 162.546 18.4645 163.154 19.0506C163.469 19.9573 163.391 21.5252 163.199 22.4697C162.325 26.7569 162.841 30.4153 159.222 33.3608C156.276 33.8724 154.898 34.0121 151.939 34.0423C151.568 36.3808 151.226 39.0466 150.676 41.3275C148.599 49.9423 146.595 58.4685 144.249 67.0173C145.103 68.3301 146.019 69.6107 145.994 71.265C145.983 72.0692 145.65 72.8354 145.07 73.3921C144.013 74.4046 133.561 74.1523 131.328 74.0076C124.591 73.5709 122.751 73.2417 123.022 66.7455C123.624 63.1314 125.486 57.6713 125.989 54.6103C126.525 51.3473 131.083 35.8223 130.24 34.1144C129.415 33.5513 128.105 33.4377 127.091 33.2736C126.196 34.2187 125.429 35.2187 124.031 35.3164C121.99 35.6654 121.121 33.1211 121.831 31.5879C122.953 29.1616 123.681 26.7888 124.164 24.1379C124.253 23.651 124.763 21.3227 125.155 21.1385C128.949 19.3557 135.079 19.9802 139.301 19.9845C145.999 20.0135 152.697 20.006 159.395 19.9618L161.423 18.4341Z"/><path fill="#419952" transform="scale(1.15359 1.15359)" d="M280.65 21.0822C286.575 20.8598 292.569 20.9978 298.499 21.0029C301.754 21.0057 301.831 21.8709 302.597 24.7273C300.889 31.0321 299.734 36.9442 298.523 43.2991C297.354 49.4331 295.431 53.4278 295.46 60.0173C299.529 60.0414 303.599 60.0183 307.667 59.9479L308.101 59.4822C309.207 58.3048 309.492 57.6886 311.01 57.6407C311.929 58.0002 312.706 59.2148 313.335 60.0316C311.34 64.4485 310.979 67.9808 308.974 72.0447C308.414 72.8601 307.849 73.6726 307.281 74.4822L287.457 74.4875C283.124 74.4931 276.551 74.866 272.604 73.8065C270.249 67.1756 273.42 63.3023 274.372 57.0558C275.808 47.6337 280.481 36.6046 281.119 27.3509C279.077 25.3286 275.889 22.4146 280.65 21.0822Z"/><path fill="#419952" transform="scale(1.15359 1.15359)" d="M255.811 20.6152C255.941 20.5654 257.979 20.639 258.336 20.6372C261.908 20.6191 271.611 19.8579 274.251 22.1598C275.835 25.1037 273.349 32.4221 272.615 35.6179C271.175 42.14 269.649 48.6428 268.038 55.1247C267.617 56.8596 264.762 67.2561 265.474 68.3838C267.951 72.3047 268.705 74.3839 263.062 74.4688C258.137 74.4392 249.414 75.1917 245.276 73.4682C242.555 67.8296 245.983 61.1862 247.104 55.4867C248.91 46.3049 251.859 37.2348 253.48 28.0505C253.652 27.075 249.323 23.8873 251.14 21.4564C252.095 20.8607 254.575 20.7425 255.811 20.6152Z"/><path fill="#419952" transform="scale(1.15359 1.15359)" d="M42.7972 19.0992C47.0979 18.7756 51.8202 19.0974 56.1666 18.9467C59.0122 18.8481 62.3773 18.7799 64.7351 20.5812C66.5979 23.2806 63.9944 30.0332 63.4925 32.928C62.6592 37.7339 61.1477 42.5228 60.1142 47.2577C58.7757 53.39 55.9804 61.1097 55.9164 67.3283C56.4495 67.8133 56.9305 68.3526 57.3517 68.9373C58.5917 70.6803 57.8692 71.6249 56.3326 72.6766C52.8588 73.5514 45.5592 71.9009 41.5913 72.5864C41.0803 72.6747 38.5993 72.6882 38.1483 72.6336C37.042 72.5006 36.0413 71.912 35.3873 71.0098C33.6177 68.6168 37.7566 54.2888 38.5034 51.2379C39.9098 45.4923 41.2141 39.6362 42.4517 33.831C43.0516 31.0171 43.8896 28.3299 44.2937 25.4401C41.3234 23.9589 40.2156 21.7788 42.7972 19.0992Z"/><path fill="#419952" transform="scale(1.15359 1.15359)" d="M375.668 60.3723C377.402 60.5217 379.849 60.5058 381.637 60.5476C381.81 62.5331 382.687 65.1978 382.881 67.0324C383.384 71.7897 384.595 78.3947 384.506 82.9883C383.128 83.0046 381.651 82.9622 380.265 82.9483C380.017 80.8523 379.515 79.4741 378.843 77.5069L372.453 77.4825C371.808 77.3643 372.051 77.3365 371.457 77.5721C370.34 79.2317 369.112 81.0837 368.477 82.9708C367.242 82.9984 365.285 83.1304 364.182 82.7505C363.16 80.7654 374.91 63.9748 375.668 60.3723Z"/><path fill="#FEFFFE" transform="scale(1.15359 1.15359)" d="M377.435 65.965C378.465 66.993 378.533 72.0595 378.519 73.4746L374.264 73.5314L373.787 73.6137L373.674 73.2138C374.615 70.7628 376.1 68.2461 377.435 65.965Z"/><path fill="#419952" transform="scale(1.15359 1.15359)" d="M353.851 60.4791C357.151 60.4742 364.107 59.6597 366.584 62.049C368.189 63.5962 368.041 66.1656 367.971 68.2615C364.141 74.5825 362.732 74.5577 355.662 74.5354C354.802 75.7462 354.361 80.7701 353.772 82.9289C352.628 82.9897 351.166 82.9544 349.995 82.9562C349.759 76.4931 352.624 67.1132 353.851 60.4791Z"/><path fill="#FEFFFE" transform="scale(1.15359 1.15359)" d="M357.481 64.0061C362.429 63.8531 365.061 65.0391 361.536 70.1199C360.158 70.6967 358.512 70.8757 357.044 71.0514C356.88 68.5533 357.563 66.5342 357.481 64.0061Z"/><path fill="#419952" transform="scale(1.15359 1.15359)" d="M342.321 60.0514C343.65 59.9029 346.457 59.9652 347.613 60.6739C348.734 61.3608 348.879 63.0065 348.139 64.0858C346.723 64.8555 344.694 63.7916 342.76 63.2861C341.603 63.9676 340.579 64.964 339.576 65.8668C342.993 69.7118 343.189 68.7255 346.698 71.6999C349.202 77.9929 345.114 82.114 339.153 83.025C336.229 83.0519 335.337 82.743 332.494 81.8434C332.517 73.2182 334.417 79.4237 338.901 78.961C339.526 78.8965 341.613 77.9253 341.819 77.3891C343.674 72.535 335.776 72.7471 335.321 68.2925C334.753 62.7268 337.519 61.0191 342.321 60.0514Z"/><path fill="#FEFFFE" transform="scale(1.15359 1.15359)" d="M84.1652 92.3865C87.6863 92.0678 90.3664 92.9805 90.7687 97.018C90.9561 98.8987 90.3043 100.074 89.6494 101.772L87.3581 102.465C87.0072 102.586 86.6513 102.694 86.2916 102.787C79.9618 104.384 77.4968 93.9768 84.1652 92.3865Z"/><defs><linearGradient id="gradient_3" gradientUnits="userSpaceOnUse" x1="85.472778" y1="97.57473" x2="80.887138" y2="97.846634"><stop offset="0" stop-color="#4F7D54"/><stop offset="1" stop-color="#549A64"/></linearGradient></defs><path fill="url(#gradient_3)" transform="scale(1.15359 1.15359)" d="M87.3581 102.465C87.0072 102.586 86.6513 102.694 86.2916 102.787C79.9618 104.384 77.4968 93.9768 84.1652 92.3865L84.4465 92.6618C82.9617 94.6196 82.2512 99.9559 84.4395 101.788C84.8351 102.119 85.8066 101.997 86.3258 101.956L87.3581 102.465Z"/><path fill="#419952" transform="scale(1.15359 1.15359)" d="M84.1652 92.3865C87.6863 92.0678 90.3664 92.9805 90.7687 97.018C90.9561 98.8987 90.3043 100.074 89.6494 101.772L87.3581 102.465L86.3258 101.956L87.1142 101.599C88.4916 99.5173 88.3431 94.9054 86.6518 93.0896C86.2457 92.6537 85.0309 92.6804 84.4465 92.6618L84.1652 92.3865Z"/><path fill="#FEFFFE" transform="scale(1.15359 1.15359)" d="M202.664 92.998L203.301 93.1029C208.96 92.553 209.832 101.548 205.804 102.234C204.712 102.727 204.461 102.771 203.265 102.885C202.523 102.994 199.815 103.075 199.153 102.79C199.712 101.176 199.534 95.1677 199.543 93.0137L202.664 92.998Z"/><path fill="#419952" transform="scale(1.15359 1.15359)" d="M199.543 93.0137L202.664 92.998C201.344 94.8314 202.15 99.8361 201.969 102.34L201.885 102.64C202.346 102.719 202.805 102.8 203.265 102.885C202.523 102.994 199.815 103.075 199.153 102.79C199.712 101.176 199.534 95.1677 199.543 93.0137Z"/><path fill="#419952" transform="scale(1.15359 1.15359)" d="M203.301 93.1029C208.96 92.553 209.832 101.548 205.804 102.234L204.91 101.794C205.538 98.0359 206.242 96.2112 203.301 93.1029Z"/><path fill="#547464" transform="scale(1.15359 1.15359)" d="M201.969 102.34C202.953 102.177 203.934 101.995 204.91 101.794L205.804 102.234C204.712 102.727 204.461 102.771 203.265 102.885C202.805 102.8 202.346 102.719 201.885 102.64L201.969 102.34Z"/><path fill="#419952" transform="scale(1.15359 1.15359)" d="M241.973 103.009C241.033 103.015 240.164 102.975 239.229 102.93L239.003 102.623C239.986 101.258 239.421 95.2229 239.267 93.2492C239.979 92.8773 241.142 92.9984 241.979 93.0178L244.911 93.0978C246.795 93.9235 248.373 95.5337 247.399 97.7064C246.875 98.2809 246.76 98.3708 245.998 98.5255L245.746 99.125C246.826 100.518 249.133 102.319 247.581 103.973C245.945 104.092 243.228 100.145 242.417 98.7339L242.205 98.8756C241.913 99.9084 241.977 101.862 241.973 103.009Z"/><path fill="#419952" transform="scale(1.15359 1.15359)" d="M242.417 98.7339C242.544 98.5836 242.853 98.4041 243.031 98.2897L243.529 98.9856C245.066 99.1666 244.186 98.3182 245.998 98.5255L245.746 99.125C246.826 100.518 249.133 102.319 247.581 103.973C245.945 104.092 243.228 100.145 242.417 98.7339Z"/><path fill="#419952" transform="scale(1.15359 1.15359)" d="M244.911 93.0978C246.795 93.9235 248.373 95.5337 247.399 97.7064C246.875 98.2809 246.76 98.3708 245.998 98.5255C244.186 98.3182 245.066 99.1666 243.529 98.9856L243.031 98.2897C245.355 97.6923 245.705 95.6734 244.154 93.9897L244.911 93.0978Z"/><path fill="#FEFFFE" transform="scale(1.15359 1.15359)" d="M242.277 93.8251L244.154 93.9897C245.705 95.6734 245.355 97.6923 243.031 98.2897C242.853 98.4041 242.544 98.5836 242.417 98.7339L242.205 98.8756C242.049 97.5841 241.665 94.9765 242.277 93.8251Z"/><path fill="#457251" transform="scale(1.15359 1.15359)" d="M241.979 93.0178L244.911 93.0978L244.154 93.9897L242.277 93.8251C241.923 93.7969 241.87 93.7232 241.623 93.4901L241.979 93.0178Z"/><path fill="#419952" transform="scale(1.15359 1.15359)" d="M294.813 93.3925C295.41 93.1714 295.219 93.1442 295.725 93.3305C296.623 93.4161 297.981 93.4204 298.496 94.1719C300.493 97.0899 298.756 99.3334 295.442 98.9063L295.069 98.9352C294.981 100.175 295.217 103.128 294.707 103.922C294.652 103.928 294.598 103.934 294.543 103.94C293.586 104.044 292.781 104.16 292.079 103.595C292.64 99.6233 292.5 97.7604 292.29 93.7638C292.747 93.4109 294.11 93.442 294.813 93.3925Z"/><path fill="#419952" transform="scale(1.15359 1.15359)" d="M294.813 93.3925C295.41 93.1714 295.219 93.1442 295.725 93.3305C296.623 93.4161 297.981 93.4204 298.496 94.1719C300.493 97.0899 298.756 99.3334 295.442 98.9063L295.069 98.9352C295.008 97.6955 295.201 93.8746 294.813 93.3925Z"/><path fill="#EBFCE7" transform="scale(1.15359 1.15359)" d="M294.813 93.3925C295.41 93.1714 295.219 93.1442 295.725 93.3305C296.563 95.4009 297.343 97.1841 295.442 98.9063L295.069 98.9352C295.008 97.6955 295.201 93.8746 294.813 93.3925Z"/><path fill="#419952" transform="scale(1.15359 1.15359)" d="M35.0752 92.4592C35.9243 91.6988 38.4218 92.1406 39.4905 92.4722C41.0827 92.66 42.2182 93.4881 41.9571 95.2699C41.8097 96.2393 41.2748 97.1073 40.4751 97.6748C40.1102 97.9368 38.9597 98.0291 38.4799 98.0658C35.1456 99.0638 37.7251 100.95 37.9437 102.016C37.4193 102.528 34.9921 102.767 34.3259 102.38C34.4291 101.406 34.8811 100.645 34.9624 99.6632C35.1552 97.3353 35.0858 94.8018 35.0752 92.4592Z"/><path fill="#419952" transform="scale(1.15359 1.15359)" d="M39.4905 92.4722C41.0827 92.66 42.2182 93.4881 41.9571 95.2699C41.8097 96.2393 41.2748 97.1073 40.4751 97.6748C40.1102 97.9368 38.9597 98.0291 38.4799 98.0658C37.8196 97.9905 37.6915 97.9623 37.0807 97.6745L37.0982 97.2762C39.9122 96.5453 40.008 95.4799 38.9987 93.0523L39.4905 92.4722Z"/><path fill="#EBFCE7" transform="scale(1.15359 1.15359)" d="M37.0145 92.6064L38.9987 93.0523C40.008 95.4799 39.9122 96.5453 37.0982 97.2762C36.8765 95.7447 36.6546 94.1159 37.0145 92.6064Z"/><path fill="#457251" transform="scale(1.15359 1.15359)" d="M35.0752 92.4592C35.9243 91.6988 38.4218 92.1406 39.4905 92.4722L38.9987 93.0523L37.0145 92.6064C36.331 92.6605 35.6486 92.8013 35.0752 92.4592Z"/><path fill="#419952" transform="scale(1.15359 1.15359)" d="M15.2969 93.3512L15.1732 92.3749C17.3863 89.7893 21.0089 96.3078 21.9791 97.6355C21.9607 95.9118 21.8268 93.4722 22.6002 91.9437L23.1165 91.8987C23.701 93.4139 23.9077 101.308 23.015 102.475C20.5548 101.99 18.7399 96.125 16.2832 95.1992C15.402 94.844 15.5111 94.2437 15.2969 93.3512Z"/><defs><linearGradient id="gradient_4" gradientUnits="userSpaceOnUse" x1="128.07278" y1="97.767586" x2="121.09673" y2="97.621796"><stop offset="0" stop-color="#365544"/><stop offset="1" stop-color="#539A69"/></linearGradient></defs><path fill="url(#gradient_4)" transform="scale(1.15359 1.15359)" d="M120.498 103.031C121.093 100.135 121.071 97.2861 120.909 94.3601C120.87 93.6687 120.616 93.1053 120.87 92.4811L122.656 92.5215L123.275 93.2133C123.34 93.9262 123.557 96.7951 123.725 97.3084L123.752 97.8521L124.507 97.7984L124.648 98.2165C124.913 99.003 124.99 99.9927 125.985 100.016C126.614 100.587 126.753 100.838 127.709 100.459C127.851 100.306 128.215 100.137 128.414 100.031L128.649 100.296C128.539 101.25 128.03 101.897 127.507 102.691C124.97 102.966 123.045 102.999 120.498 103.031Z"/><path fill="#EBFCE7" transform="scale(1.15359 1.15359)" d="M123.498 102.243C123.43 100.569 122.912 98.8254 124.648 98.2165C124.913 99.003 124.99 99.9927 125.985 100.016C126.614 100.587 126.753 100.838 127.709 100.459C127.526 101.036 127.319 101.239 126.941 101.693C126.029 102.241 124.596 102.189 123.498 102.243Z"/><path fill="#419952" transform="scale(1.15359 1.15359)" d="M303.805 92.6185C304.997 95.7151 307.318 101.002 308.92 103.968L305 103.964C305.02 103.104 305.162 101.854 304.732 101.159C304.507 101.072 304.226 100.939 303.996 100.938C303.013 100.94 302.296 100.935 301.31 101.069C300.479 102.331 301.275 102.42 300.613 103.73C299.85 104.045 300.159 104.031 299.373 103.788L299.228 103.252C299.941 101.195 300.221 100.588 301.359 98.7323C301.744 97.2916 303.136 94.0751 303.805 92.6185Z"/><path fill="#457251" transform="scale(1.15359 1.15359)" d="M301.359 98.7323C302.254 100.809 302.216 99.8147 303.908 100.526L303.996 100.938C303.013 100.94 302.296 100.935 301.31 101.069C300.479 102.331 301.275 102.42 300.613 103.73C299.85 104.045 300.159 104.031 299.373 103.788L299.228 103.252C299.941 101.195 300.221 100.588 301.359 98.7323Z"/><defs><linearGradient id="gradient_5" gradientUnits="userSpaceOnUse" x1="284.08438" y1="103.36522" x2="287.48309" y2="97.926956"><stop offset="0" stop-color="#4D755B"/><stop offset="1" stop-color="#599863"/></linearGradient></defs><path fill="url(#gradient_5)" transform="scale(1.15359 1.15359)" d="M285.315 96.4646C286.842 97.0682 289.1 97.9009 289.792 99.4646C290.072 100.108 290.084 100.836 289.824 101.488C289.351 102.659 288.262 103.308 287.215 103.957C285.867 103.933 284.333 103.942 283.004 103.866C283.043 102.927 283.081 100.815 283.294 100.018C283.542 99.4854 283.502 98.9102 283.514 98.319L283.496 97.7693C284.336 96.9141 284.247 96.7484 285.315 96.4646Z"/><path fill="#FEFFFE" transform="scale(1.15359 1.15359)" d="M283.514 98.319C285.339 99.7151 287.233 99.5768 288.139 101.364C288.158 102.133 288.254 101.853 287.691 102.474C283.863 104.08 284.126 100.919 283.294 100.018C283.542 99.4854 283.502 98.9102 283.514 98.319Z"/><path fill="#419952" transform="scale(1.15359 1.15359)" d="M92.4156 92.2892C92.842 92.3433 94.6347 92.5137 94.8782 92.6965C96.7747 94.1203 98.2479 96.5026 99.8278 98.2575C99.5951 96.8079 99.0698 93.6561 100.316 92.5851C101.378 93.3574 101.214 101.559 100.661 102.331C98.3816 102.314 95.7347 96.2249 94.092 95.8839L93.273 95.7574C93.0145 94.4938 92.825 93.5199 92.4156 92.2892Z"/><defs><linearGradient id="gradient_6" gradientUnits="userSpaceOnUse" x1="274.65616" y1="99.14843" x2="266.64764" y2="98.099693"><stop offset="0" stop-color="#3E6F4D"/><stop offset="1" stop-color="#529F59"/></linearGradient></defs><path fill="url(#gradient_6)" transform="scale(1.15359 1.15359)" d="M266.451 93.0449C267.478 93.0188 268.505 93.0159 269.532 93.036L269.774 93.3707C269.241 95.2331 269.532 100.546 269.604 102.664C270.758 102.556 272.057 102.584 273.226 102.581C273.533 101.891 273.812 101.076 274.397 100.629C274.914 101.11 274.797 101.494 274.917 102.357C274.842 102.84 274.769 102.957 274.542 103.392C272.99 104.239 268.415 104.013 266.503 104.006C267.204 101.298 267.293 95.7083 266.451 93.0449Z"/><path fill="#419952" transform="scale(1.15359 1.15359)" d="M170.399 98.2473L170.445 98.1863C171.68 96.5389 171.784 93.1321 173.333 92.8359C173.748 93.2447 174.267 94.7671 174.329 95.3068C174.505 96.8419 177.81 101.524 177.43 102.727C176.95 103.088 176.661 103.38 176.056 103.374C174.149 102.805 174.26 98.2976 170.905 100.113C170.797 100.171 170.691 100.233 170.588 100.298C170.603 99.6458 170.668 99.4367 170.841 98.8299L170.399 98.2473Z"/><path fill="#419952" transform="scale(1.15359 1.15359)" d="M30.3698 92.7982C30.0314 92.8092 29.6932 92.8252 29.3553 92.8462C28.47 92.9036 27.9941 92.9132 27.3971 93.595C27.474 95.6592 34.046 97.0915 32.5031 100.968C31.6334 103.153 26.0239 103.044 25.1984 100.982C24.9015 100.241 25.0038 99.3761 25.8167 99.0266C27.2205 99.6266 26.6706 102.397 29.4938 102.24C33.0359 100.132 26.5114 98.1023 26.1562 95.9236C25.9542 94.6841 25.6879 93.0083 27.1114 92.502C28.3537 92.7086 29.1245 92.747 30.3698 92.7982Z"/><path fill="#419952" transform="scale(1.15359 1.15359)" d="M187.411 92.9594C193.263 92.8616 191.848 94.5209 195.125 98.5059C196.196 99.3313 196.128 99.3322 196.497 100.543L196.455 103.625C193.739 100.901 192.119 98.7683 189.756 95.7325C189.631 97.5643 189.534 99.5539 189.329 101.366C189.247 100.411 189.225 99.7283 188.871 98.8196C189.419 95.6793 189.647 95.2932 187.411 92.9594Z"/><path fill="#419952" transform="scale(1.15359 1.15359)" d="M260.383 92.6412C261.012 95.1249 264.866 102.733 264.703 103.819C261.65 105.446 260.08 100.686 259.747 98.4962C259.495 98.2418 259.459 98.1152 259.157 98.0512C258.865 97.8159 258.327 97.257 258.035 96.9717C258.966 95.7858 259.722 94.0333 260.383 92.6412Z"/><path fill="#419952" transform="scale(1.15359 1.15359)" d="M141.477 95.7364C141.48 94.7364 141.125 92.9724 141.32 92.5083C144.88 91.391 146.456 97.3176 148.435 98.0581L148.658 97.5357L149.266 98.4926C148.911 99.0848 148.933 102.485 148.914 103.375C147.919 101.749 144.199 96.9626 142.788 95.8316L141.477 95.7364Z"/><path fill="#419952" transform="scale(1.15359 1.15359)" d="M157.545 95.6881C160.208 93.2682 161.283 91.6835 165.224 92.7993L165.291 93.5224C164.472 93.4256 162.895 93.1912 162.186 93.549C158.904 95.2048 160.015 99.5851 161.128 102.166C162.775 102.212 165.817 101.501 166.312 101.728L166.119 102.088C163 104.184 159.998 102.768 157.509 100.627C157.482 99.0104 157.527 97.3111 157.545 95.6881Z"/><path fill="#419952" transform="scale(1.15359 1.15359)" d="M9.53233 91.9967C10.3605 91.9883 11.6324 91.8756 12.3184 92.2531C12.6053 93.6455 12.5154 100.67 12.5329 102.505L9.48759 102.488L9.53233 91.9967Z"/><path fill="#419952" transform="scale(1.15359 1.15359)" d="M220.501 97.9417C220.471 96.1954 220.032 94.2229 221.465 93.132C222.33 92.8661 223.418 93.159 224.327 93.3261L224.265 93.4628C223.415 93.5253 222.89 93.5048 222.169 93.9577C221.393 96.3775 230.942 99.1172 226.338 102.814C226.218 102.91 225.445 103.05 225.234 103.09L225.007 102.265C225.504 99.6771 222.511 98.9188 220.501 97.9417Z"/><path fill="#419952" transform="scale(1.15359 1.15359)" d="M183.168 92.2459C188.682 93.1403 184.155 95.6714 185.713 99.2431C186.083 100.092 186.053 101.751 186.021 102.715C185.792 103.035 184.741 103.281 184.357 103.359C183.867 103.249 183.742 103.074 183.38 102.713C182.66 100.694 182.896 94.4734 183.168 92.2459Z"/><path fill="#419952" transform="scale(1.15359 1.15359)" d="M46.6909 102.51C45.5452 102.507 44.5965 102.662 43.714 102.119C43.2609 100.919 44.8906 95.205 43.6579 93.281C43.5647 93.1357 43.4463 92.3623 43.4548 92.1604C44.9339 92.3589 45.9556 92.4907 47.445 92.5125L47.4155 92.8049C46.0618 93.6595 45.4798 94.7127 46.1335 96.3803C47.1245 97.2185 47.5953 95.5191 48.6291 95.5657C48.5665 96.6914 48.5077 97.7843 48.3971 98.9079C47.702 98.5697 46.8768 98.049 46.1568 98.2192C45.5779 99.1742 46.0183 100.942 46.4573 101.932L46.6909 102.51Z"/><path fill="#419952" transform="scale(1.15359 1.15359)" d="M57.4974 102.607C51.2674 101.989 51.1595 93.3859 57.209 92.1357L57.449 93.0318C55.3991 95.8155 55.262 99.5231 57.5209 102.272L57.4974 102.607Z"/><path fill="#419952" transform="scale(1.15359 1.15359)" d="M250.064 92.9605C250.676 92.9707 252.945 92.912 253.374 93.2102C253.563 93.342 253.118 94.6366 253.09 94.9135C252.813 97.6484 253.016 100.984 253.419 103.675L253.004 103.973C252.083 103.946 251.272 103.361 250.476 102.886C250.513 100.4 250.737 95.1757 250.064 92.9605Z"/><path fill="#419952" transform="scale(1.15359 1.15359)" d="M66.283 102.515C64.326 100.949 63.3415 99.6526 63.4126 96.9785C63.4926 93.9738 65.4795 92.3646 68.3346 92.4663L68.4941 93.0323C65.2519 96.3597 65.1082 99.3378 69.0009 102.271L68.9085 102.466L66.283 102.515Z"/><path fill="#419952" transform="scale(1.15359 1.15359)" d="M210.5 93.0033C211.587 92.9767 212.335 92.9739 213.436 93.0592C214.257 94.4061 209.936 101.899 216.19 102.68L216.387 102.995C214.072 102.645 209.916 103.815 210.3 99.8163C210.518 97.5478 210.499 95.282 210.5 93.0033Z"/><path fill="#419952" transform="scale(1.15359 1.15359)" d="M75.0931 92.4483C75.8492 92.4952 77.3449 92.4078 77.8552 92.8105C78.1404 94.7398 78.0532 100.437 77.9093 102.508C76.9406 102.509 76.2784 102.491 75.3163 102.39C74.835 101.4 75.4771 101.035 75.5123 99.9457C75.5892 97.5713 75.6364 94.7584 75.0931 92.4483Z"/><path fill="#419952" transform="scale(1.15359 1.15359)" d="M132.527 93.1441C133.1 93.656 132.842 93.5113 133.645 93.6749C132.796 95.5807 132.612 99.3693 133.319 101.205C133.417 101.456 133.528 101.702 133.651 101.941L132.712 102.454C128.997 101.206 129.466 97.7998 130.552 94.5299C130.857 93.6124 131.69 93.4472 132.527 93.1441Z"/><path fill="#419952" transform="scale(1.15359 1.15359)" d="M152.389 92.3143C153.53 92.5945 154.256 92.5032 155.43 92.4479C155.8 93.0953 155.209 93.5778 155.072 94.4187C154.901 95.6324 154.741 97.0543 154.865 98.2798C155.068 100.275 154.612 101.398 156.137 102.81C155.503 103.046 152.786 102.995 151.945 103.002C153.465 99.8373 153.426 95.6083 152.389 92.3143Z"/><path fill="#547464" transform="scale(1.15359 1.15359)" d="M389.246 77.8768C390.451 77.3739 392.573 76.7596 392.384 78.8439C392.347 79.8523 392.398 82.4097 391.89 83.0967C391.232 83.0505 391.465 83.1423 390.951 82.7162L390.887 82.4933C390.3 81.29 390.628 81.5655 389.574 81.0254C389.533 81.2136 389.487 81.4005 389.434 81.5857C389.253 82.2172 389.079 82.7005 388.494 83.0266L388.097 82.7924C387.525 81.7108 387.694 80.5429 387.751 79.3206C388.229 78.5717 388.522 78.3988 389.246 77.8768Z"/><path fill="#3A625A" transform="scale(1.15359 1.15359)" d="M392.384 78.8439C392.347 79.8523 392.398 82.4097 391.89 83.0967C391.232 83.0505 391.465 83.1423 390.951 82.7162L390.887 82.4933C390.957 81.2672 390.419 80.7503 390.756 79.5276C391.206 79.4531 391.946 79.0556 392.384 78.8439Z"/><path fill="#3A625A" transform="scale(1.15359 1.15359)" d="M387.751 79.3206C388.47 79.795 389.281 80.2183 389.574 81.0254C389.533 81.2136 389.487 81.4005 389.434 81.5857C389.253 82.2172 389.079 82.7005 388.494 83.0266L388.097 82.7924C387.525 81.7108 387.694 80.5429 387.751 79.3206Z"/><path fill="#419952" transform="scale(1.15359 1.15359)" d="M113.626 93.9298L113.696 93.7539C114.093 93.2683 114.961 93.1775 115.613 93.0361C115.327 95.3755 115.483 100.402 115.498 102.95C114.837 102.957 113.016 103.081 112.57 102.769C114.388 99.3182 113.155 97.7832 113.626 93.9298Z"/><path fill="#419952" transform="scale(1.15359 1.15359)" d="M232.55 93.1372L233.145 93.1112L233.597 93.6581L233.878 93.6822L233.924 102.98C232.996 102.997 232.295 102.983 231.369 102.922L231.164 102.577C231.324 102.422 231.876 101.876 231.915 101.727C232.305 100.229 232.332 95.0089 231.934 93.737L232.55 93.1372Z"/><path fill="#2C4F35" transform="scale(1.15359 1.15359)" d="M283.496 97.7693C281.518 90.9512 291.608 92.4777 289.084 95.9563C287.552 95.0842 287.261 93.5273 285.358 93.7567C284.703 94.2268 284.611 94.5358 284.285 95.2702C284.5 96.055 284.537 95.8875 285.315 96.4646C284.247 96.7484 284.336 96.9141 283.496 97.7693Z"/><path fill="#457251" transform="scale(1.15359 1.15359)" d="M110.254 92.5332C111.862 92.5098 117.457 92.1373 118.47 92.9827C118.996 93.8114 118.948 93.5126 118.981 94.4722C118.087 94.9189 117.956 93.4782 115.613 93.0361C114.961 93.1775 114.093 93.2683 113.696 93.7539L113.626 93.9298C113.298 93.4543 112.78 93.4057 112.216 93.2719C111.26 93.5398 111.051 94.0802 110.321 94.9279C110.02 94.4482 110.209 93.1675 110.254 92.5332Z"/><path fill="#419952" transform="scale(1.15359 1.15359)" d="M258.035 96.9717C258.327 97.257 258.865 97.8159 259.157 98.0512C258.835 98.5218 258.568 99.0169 258.289 99.5137C258.468 100.577 258.586 99.6792 259.501 100.554C258.985 101.228 258.457 100.721 257.229 101.114C256.876 101.917 257.228 102.506 257.466 103.52C257.093 103.955 257.275 103.841 256.652 103.928C255.406 102.495 257.279 98.461 258.035 96.9717Z"/><path fill="#759D7C" transform="scale(1.15359 1.15359)" d="M141.477 95.7364L142.788 95.8316C142.206 97.3156 142.926 101.448 142.328 103.013C140.714 102.921 141.417 97.0092 141.477 95.7364Z"/><path fill="#419952" transform="scale(1.15359 1.15359)" d="M57.209 92.1357C58.3919 92.1172 60.0923 92.0344 61.1899 92.4002C62.6397 92.8834 63.1928 94.5032 61.9685 95.6069C60.9843 94.5023 60.1207 93.0727 58.7665 92.9961C58.327 92.975 57.8866 92.9869 57.449 93.0318L57.209 92.1357Z"/><path fill="#2C4F35" transform="scale(1.15359 1.15359)" d="M216.19 102.68C218.09 100.076 216.109 94.0478 218.162 92.9696L218.348 93.2218C218.138 94.2433 217.966 95.202 217.872 96.2375C217.72 97.894 218.444 102.43 216.387 102.995L216.19 102.68Z"/><path fill="#759D7C" transform="scale(1.15359 1.15359)" d="M195.125 98.5059C195.808 96.8115 194.817 93.7722 196.065 92.8551C197.156 93.6031 196.503 98.951 196.497 100.543C196.128 99.3322 196.196 99.3313 195.125 98.5059Z"/><path fill="#457251" transform="scale(1.15359 1.15359)" d="M132.527 93.1441C134.145 92.1957 137.879 92.092 139.305 93.451C139.646 94.2816 139.643 94.4705 139.591 95.3695L139.351 95.6575C138.153 94.9084 138.62 92.672 134.244 93.4089C134.065 93.4391 133.804 93.5741 133.645 93.6749C132.842 93.5113 133.1 93.656 132.527 93.1441Z"/><path fill="#419952" transform="scale(1.15359 1.15359)" d="M148.658 97.5357C148.531 95.9865 148.213 94.3638 148.885 92.9869L149.286 92.8695C150.308 94.0607 149.935 97.2285 149.266 98.4926L148.658 97.5357Z"/><path fill="#889B98" transform="scale(1.15359 1.15359)" d="M15.2969 93.3512C15.5111 94.2437 15.402 94.844 16.2832 95.1992C14.7764 99.1947 16.7011 101.224 16.4149 102.388L15.868 102.528L15.3826 102.155C14.9628 101.248 15.2883 94.9462 15.2969 93.3512Z"/><path fill="#419952" transform="scale(1.15359 1.15359)" d="M123.725 97.3084C124.804 96.5441 124.717 96.1571 125.729 95.6988L125.912 96.0047L125.623 95.8007C126.166 96.4839 125.921 98.9726 125.985 100.016C124.99 99.9927 124.913 99.003 124.648 98.2165L124.507 97.7984L123.752 97.8521L123.725 97.3084Z"/><path fill="#457251" transform="scale(1.15359 1.15359)" d="M122.656 92.5215C123.942 92.5159 126.245 92.4064 127.371 92.7881C128.113 93.5654 128.092 94.2235 127.885 95.2511L127.625 95.4693C126.902 94.9203 127.251 93.6664 126.437 93.532C125.415 93.3633 124.306 93.3814 123.275 93.2133L122.656 92.5215Z"/><path fill="#457251" transform="scale(1.15359 1.15359)" d="M233.145 93.1112C234.816 93.0431 236.986 92.7149 237.88 94.5058L237.819 95.1568C237.208 95.6041 237.456 95.554 236.809 95.4763C236.132 94.6456 235.7 93.8411 234.702 93.7368C234.428 93.7093 234.153 93.6911 233.878 93.6822L233.597 93.6581L233.145 93.1112Z"/><path fill="#547464" transform="scale(1.15359 1.15359)" d="M49.8832 101.646C50.3418 100.801 50.4802 100.203 51.2273 99.777C51.5316 100.711 51.032 101.552 50.6239 102.481L46.6909 102.51L46.4573 101.932L49.8832 101.646Z"/><path fill="#457251" transform="scale(1.15359 1.15359)" d="M228.027 93.1264C229.535 93.0917 231.043 93.0953 232.55 93.1372L231.934 93.737C231.522 93.8523 230.391 93.9267 229.908 93.9695C229.301 94.4208 228.948 95.1415 228.475 95.8132C228.17 95.3276 228.093 93.7829 228.027 93.1264Z"/><path fill="#457251" transform="scale(1.15359 1.15359)" d="M225.234 103.09C224.758 103.31 224.397 103.409 223.901 103.554C222.176 103.211 220.226 103.212 219.903 101.217C220.065 100.673 220.111 100.33 220.581 100.002C221.785 100.903 219.802 103.608 225.007 102.265L225.234 103.09Z"/><path fill="#457251" transform="scale(1.15359 1.15359)" d="M68.3346 92.4663C69.9515 91.543 73.8832 92.333 73.0287 95.2451C73.0139 95.295 72.9985 95.3447 72.9826 95.3943L72.6478 95.5448C71.5631 94.1426 71.8885 93.5105 70.8985 92.8736C69.8202 92.7736 69.5597 92.8169 68.4941 93.0323L68.3346 92.4663Z"/><path fill="#889B98" transform="scale(1.15359 1.15359)" d="M93.273 95.7574L94.092 95.8839C93.4473 97.688 94.2887 101.775 93.3945 102.522L93.0277 102.269C92.7845 101.341 93.1967 97.0909 93.273 95.7574Z"/><path fill="#2C4F35" transform="scale(1.15359 1.15359)" d="M27.1114 92.502C28.2895 92.1675 29.192 92.2055 30.3918 92.2834C32.258 92.4046 32.708 92.8013 32.2529 94.6264L31.9311 95.0179C30.4246 94.5823 31.8193 93.4114 30.3698 92.7982C29.1245 92.747 28.3537 92.7086 27.1114 92.502Z"/><path fill="#457251" transform="scale(1.15359 1.15359)" d="M47.445 92.5125C48.9493 92.4832 50.9896 92.0871 51.0289 94.078L50.6304 94.6297C49.5258 94.239 49.1466 93.4353 47.4155 92.8049L47.445 92.5125Z"/><path fill="#2C4F35" transform="scale(1.15359 1.15359)" d="M133.651 101.941C136.403 102.585 137.436 101.224 138.686 101.651C137.871 102.943 134.142 103.052 132.712 102.454L133.651 101.941Z"/><path fill="#457251" transform="scale(1.15359 1.15359)" d="M170.399 98.2473L170.841 98.8299C170.668 99.4367 170.603 99.6458 170.588 100.298C170.491 101.132 169.843 102.854 168.844 102.931C168.575 102.207 169.973 99.2888 170.399 98.2473Z"/><path fill="#457251" transform="scale(1.15359 1.15359)" d="M188.871 98.8196C189.225 99.7283 189.247 100.411 189.329 101.366C189.288 102.163 189.603 101.759 189.899 102.706L189.601 103.013L188.958 102.903C187.678 101.751 188.375 100.172 188.871 98.8196Z"/><path fill="#2C4F35" transform="scale(1.15359 1.15359)" d="M224.327 93.3261C225.081 93.2186 225.797 93.0053 226.401 93.4217C226.931 94.0672 226.918 95.8342 226.986 96.7545C226.087 95.4294 225.509 94.4856 224.265 93.4628L224.327 93.3261Z"/><path fill="#457251" transform="scale(1.15359 1.15359)" d="M165.224 92.7993C166.651 93.146 167.497 93.7447 166.94 95.4356L166.513 95.6143C165.868 95.2271 165.587 94.2501 165.291 93.5224L165.224 92.7993Z"/><path fill="#5B6762" transform="scale(1.15359 1.15359)" d="M57.5209 102.272C58.9355 102.589 60.5925 101.059 61.7226 101.271L61.8551 101.57C61.1964 102.419 58.5412 102.71 57.4974 102.607L57.5209 102.272Z"/><path fill="#5B6762" transform="scale(1.15359 1.15359)" d="M69.0009 102.271C69.9848 101.85 70.9452 101.336 72.0087 101.459L72.2458 101.722C71.4001 102.516 70.0055 102.569 68.9085 102.466L69.0009 102.271Z"/></svg>